<svg width="24" height="26" viewBox="0 0 24 26" fill="none" xmlns="http://www.w3.org/2000/svg">
<path d="M17.3743 1.49304C17.4454 1.26965 17.4257 1.02724 17.3195 0.81827C17.2132 0.609304 17.0289 0.450598 16.8065 0.376509C16.584 0.30242 16.3414 0.318909 16.131 0.422406C15.9207 0.525903 15.7595 0.70808 15.6825 0.929502L14.7908 3.60331C14.7197 3.8267 14.7394 4.06911 14.8457 4.27808C14.952 4.48705 15.1363 4.64575 15.3587 4.71984C15.5811 4.79393 15.8238 4.77744 16.0341 4.67394C16.2445 4.57045 16.4056 4.38827 16.4826 4.16685L17.3743 1.49304ZM22.8051 1.47282C22.9721 1.64001 23.0659 1.86664 23.0659 2.10294C23.0659 2.33923 22.9721 2.56586 22.8051 2.73305L19.8329 5.70527C19.7513 5.79287 19.6528 5.86314 19.5435 5.91188C19.4341 5.96061 19.316 5.98682 19.1963 5.98893C19.0766 5.99104 18.9576 5.96902 18.8466 5.92417C18.7356 5.87932 18.6347 5.81257 18.5501 5.7279C18.4654 5.64323 18.3986 5.54237 18.3538 5.43135C18.3089 5.32032 18.2869 5.20139 18.289 5.08167C18.2911 4.96195 18.3174 4.84387 18.3661 4.7345C18.4148 4.62512 18.4851 4.52668 18.5727 4.44505L21.5449 1.47282C21.7121 1.30584 21.9387 1.21205 22.175 1.21205C22.4113 1.21205 22.6379 1.30584 22.8051 1.47282ZM12.2121 3.27994C11.9055 2.95141 11.5233 2.70261 11.0988 2.55509C10.6743 2.40758 10.2202 2.3658 9.7759 2.43337C9.3316 2.50094 8.91047 2.67583 8.549 2.94288C8.18753 3.20993 7.89663 3.56108 7.70149 3.96592L0.689426 18.5215C0.492433 18.9309 0.430837 19.3923 0.513555 19.839C0.596273 20.2858 0.819012 20.6946 1.14953 21.0063L2.86034 22.6208C3.16696 22.9099 3.55212 23.102 3.96751 23.1731C4.3829 23.2441 4.81002 23.191 5.19531 23.0202L6.87997 22.2736C7.39974 23.4128 8.34782 24.301 9.51844 24.7455C10.6891 25.19 11.9877 25.1548 13.1326 24.6476C14.2774 24.1405 15.1761 23.2023 15.6334 22.0366C16.0908 20.871 16.07 19.572 15.5755 18.4216L19.6415 16.6193C20.0445 16.4407 20.399 16.1684 20.6753 15.8249C20.9517 15.4815 21.1419 15.077 21.2301 14.6451C21.3183 14.2132 21.3019 13.7665 21.1823 13.3422C21.0627 12.9179 20.8434 12.5284 20.5427 12.2061L12.2121 3.28112V3.27994ZM13.9443 19.1421C14.2331 19.8572 14.2325 20.6565 13.9429 21.3712C13.6533 22.0859 13.0972 22.66 12.3921 22.9724C11.687 23.2847 10.8882 23.3108 10.1642 23.0451C9.44027 22.7794 8.84794 22.2427 8.51232 21.5484L13.9443 19.1421ZM19.5 8.64064C19.5 8.40415 19.594 8.17735 19.7612 8.01013C19.9284 7.84291 20.1552 7.74897 20.3917 7.74897H22.7695C23.006 7.74897 23.2328 7.84291 23.4 8.01013C23.5672 8.17735 23.6611 8.40415 23.6611 8.64064C23.6611 8.87712 23.5672 9.10392 23.4 9.27114C23.2328 9.43836 23.006 9.5323 22.7695 9.5323H20.3917C20.1552 9.5323 19.9284 9.43836 19.7612 9.27114C19.594 9.10392 19.5 8.87712 19.5 8.64064Z" fill="#53677F"/>
</svg>
