<svg width="24" height="25" viewBox="0 0 24 25" fill="none" xmlns="http://www.w3.org/2000/svg">
<path d="M16.8965 1.16223C16.9676 0.93884 16.9479 0.696426 16.8417 0.487459C16.7354 0.278493 16.5511 0.119788 16.3287 0.0456987C16.1062 -0.0283904 15.8636 -0.0119018 15.6532 0.0915951C15.4429 0.195092 15.2817 0.37727 15.2047 0.598692L14.3131 3.2725C14.2419 3.49589 14.2616 3.7383 14.3679 3.94727C14.4742 4.15624 14.6585 4.31494 14.8809 4.38903C15.1033 4.46312 15.346 4.44663 15.5563 4.34313C15.7667 4.23964 15.9278 4.05746 16.0048 3.83604L16.8965 1.16223ZM22.3274 1.14201C22.4943 1.3092 22.5881 1.53583 22.5881 1.77213C22.5881 2.00842 22.4943 2.23505 22.3274 2.40224L19.3551 5.37446C19.2735 5.46206 19.1751 5.53233 19.0657 5.58106C18.9563 5.6298 18.8382 5.656 18.7185 5.65812C18.5988 5.66023 18.4799 5.63821 18.3688 5.59336C18.2578 5.54851 18.1569 5.48176 18.0723 5.39709C17.9876 5.31242 17.9209 5.21156 17.876 5.10054C17.8312 4.98951 17.8091 4.87058 17.8113 4.75086C17.8134 4.63113 17.8396 4.51306 17.8883 4.40369C17.937 4.29431 18.0073 4.19587 18.0949 4.11424L21.0671 1.14201C21.2343 0.975034 21.461 0.881243 21.6972 0.881243C21.9335 0.881243 22.1602 0.975034 22.3274 1.14201ZM11.7344 2.94913C11.4277 2.6206 11.0455 2.3718 10.621 2.22428C10.1965 2.07677 9.74243 2.03499 9.29812 2.10256C8.85381 2.17013 8.43268 2.34502 8.07121 2.61207C7.70975 2.87911 7.41884 3.23027 7.22371 3.63511L0.211643 18.1907C0.0146501 18.6001 -0.0469459 19.0615 0.0357718 19.5082C0.11849 19.955 0.341228 20.3638 0.671743 20.6755L2.38255 22.29C2.68918 22.5791 3.07434 22.7712 3.48973 22.8423C3.90512 22.9133 4.33224 22.8602 4.71753 22.6894L6.40219 21.9428C6.92195 23.082 7.87004 23.9702 9.04065 24.4147C10.2113 24.8591 11.5099 24.824 12.6548 24.3168C13.7997 23.8097 14.6983 22.8715 15.1557 21.7058C15.613 20.5402 15.5922 19.2412 15.0977 18.0908L19.1637 16.2885C19.5667 16.1099 19.9212 15.8375 20.1976 15.4941C20.4739 15.1507 20.6641 14.7462 20.7523 14.3143C20.8405 13.8824 20.8241 13.4356 20.7045 13.0114C20.585 12.5871 20.3657 12.1976 20.0649 11.8753L11.7344 2.95031V2.94913ZM13.4666 18.8113C13.7553 19.5264 13.7548 20.3257 13.4651 21.0404C13.1755 21.7551 12.6194 22.3292 11.9143 22.6416C11.2092 22.9539 10.4104 22.98 9.68643 22.7143C8.96249 22.4486 8.37015 21.9119 8.03453 21.2176L13.4666 18.8113ZM19.0222 8.30982C19.0222 8.07334 19.1162 7.84654 19.2834 7.67932C19.4506 7.5121 19.6774 7.41816 19.9139 7.41816H22.2917C22.5282 7.41816 22.755 7.5121 22.9222 7.67932C23.0894 7.84654 23.1834 8.07334 23.1834 8.30982C23.1834 8.54631 23.0894 8.77311 22.9222 8.94033C22.755 9.10755 22.5282 9.20149 22.2917 9.20149H19.9139C19.6774 9.20149 19.4506 9.10755 19.2834 8.94033C19.1162 8.77311 19.0222 8.54631 19.0222 8.30982Z" fill="#A7B8CA"/>
</svg>
