<svg width="22" height="23" viewBox="0 0 22 23" fill="none" xmlns="http://www.w3.org/2000/svg">
<path d="M4.71429 1.4375C4.71429 0.64373 5.41652 0 6.28571 0C7.15491 0 7.85714 0.64373 7.85714 1.4375V2.875H14.1429V1.4375C14.1429 0.64373 14.8451 0 15.7143 0C16.5835 0 17.2857 0.64373 17.2857 1.4375V2.875H19.6429C20.9442 2.875 22 3.84037 22 5.03125V7.1875H0V5.03125C0 3.84037 1.05531 2.875 2.35714 2.875H4.71429V1.4375ZM22 20.8438C22 22.0342 20.9442 23 19.6429 23H2.35714C1.05531 23 0 22.0342 0 20.8438V8.625H22V20.8438Z" fill="#A7B8CA"/>
</svg>
