<svg width="24" height="24" viewBox="0 0 24 24" fill="none" xmlns="http://www.w3.org/2000/svg">
<path d="M16.4192 5.51576C16.4192 8.02544 13.4774 12.4978 12.1856 14.2996C11.8757 14.7823 11.3043 14.7823 10.9944 14.2996C9.7026 12.4978 6.76083 8.02544 6.76083 5.51576C6.76083 2.46968 8.92189 0 11.59 0C14.2581 0 16.4192 2.46968 16.4192 5.51576ZM11.59 6.98664C12.4794 6.98664 13.1997 6.16387 13.1997 5.14805C13.1997 4.13269 12.4794 3.30946 11.59 3.30946C10.7006 3.30946 9.98028 4.13269 9.98028 5.14805C9.98028 6.16387 10.7006 6.98664 11.59 6.98664ZM17.1274 8.26445C17.1476 8.2093 17.1677 8.15414 17.1878 8.09439L21.856 5.96162C22.4918 5.67204 23.18 6.20524 23.18 6.98664V19.4339C23.18 19.8843 22.9385 20.2888 22.5723 20.4589L16.7411 23.1202V9.21133C16.882 8.89417 17.0107 8.58161 17.1274 8.26445ZM6.05256 8.26445C6.16926 8.58161 6.29804 8.89417 6.43889 9.21133V20.7669L1.3244 23.1065C0.690168 23.3547 0 22.8628 0 22.0814V9.6342C0 9.18375 0.240452 8.73789 0.607268 8.60919L5.53744 6.35692C5.63403 7.00962 5.83122 7.65772 6.05256 8.26445ZM13.1917 15.2189C13.7511 14.4605 14.6284 13.1597 15.4533 11.721V23.18L7.72667 20.6565V11.721C8.55165 13.1597 9.42895 14.4605 9.98833 15.2189C10.8133 16.437 12.3667 16.437 13.1917 15.2189Z" fill="#53677F"/>
</svg>
